<svg id="Layer_1" enable-background="new 0 0 512 512" height="512" viewBox="0 0 512 512" width="512" xmlns="http://www.w3.org/2000/svg"><g><path d="m345.814 160.524h166.186v-112.284h-198.066v127.263z"/><path d="m166.487 311.958h-16.964c-19.493 0-35.351 15.858-35.351 35.351v18.153h87.667v-18.153c-.001-19.493-15.859-35.351-35.352-35.351z"/><path d="m172.899 267.049c0-8.22-6.688-14.908-14.909-14.908-8.22 0-14.908 6.688-14.908 14.908 0 8.221 6.688 14.909 14.908 14.909 8.221 0 14.909-6.688 14.909-14.909z"/><path d="m271.011 414.541h-30v-19.08h-241.011v68.299h512v-68.299h-240.989z"/><path d="m352.51 190.524-68.577 32.221v-144.503h-253.931v287.22h54.17v-18.153c0-25.06 14.187-46.859 34.944-57.82-3.829-6.608-6.033-14.269-6.033-22.44 0-24.763 20.146-44.908 44.908-44.908s44.909 20.146 44.909 44.908c0 8.166-2.202 15.823-6.027 22.428 20.769 10.957 34.966 32.762 34.966 57.831v18.153h250.16v-174.937zm-135.672-11.626h-117.666v-30h117.667v30zm210.158 146.559h-117.667v-30h117.667zm0-60.004h-117.667v-30h117.667z"/></g></svg>