<svg id="Capa_1" enable-background="new 0 0 512.01 512.01" height="512" viewBox="0 0 512.01 512.01" width="512" xmlns="http://www.w3.org/2000/svg"><g><path d="m421.188 155.005c-11.463-19.751-33.217-34-69.188-34h-49v-19c0-24.813-20.187-45-45-45h-4c-24.813 0-45 20.187-45 45v19h-49c-35.965 0-57.723 14.245-69.188 34zm-182.188-53c0-8.271 6.729-15 15-15h4c8.271 0 15 6.729 15 15v19h-34z"/><path d="m497.508 198.549c-9.111-8.734-21.012-13.544-33.508-13.544-23.784 0-392.255 0-416 0-26.022 0-48 21.049-48 47 0 25.918 21.949 47 48 47h33v131c0 24.813 20.187 45 45 45h260c24.813 0 45-20.187 45-45v-131h33c12.496 0 24.396-4.81 33.508-13.544 19.333-18.534 19.339-48.372 0-66.912zm-416.508 50.456h-33c-9.589 0-18-7.944-18-17s8.411-17 18-17h33zm383 0h-33v-34h33c9.589 0 18 7.944 18 17s-8.411 17-18 17z"/></g></svg>