<svg id="_x33_0" enable-background="new 0 0 64 64" height="512" viewBox="0 0 64 64" width="512" xmlns="http://www.w3.org/2000/svg"><g><path d="m10 25c0-.552-.448-1-1-1v-4.277c.595-.346 1-.984 1-1.723 0-1.304-.386-2.579-1.109-3.664l-.891-1.336-.891 1.336c-.723 1.085-1.109 2.36-1.109 3.664 0 .738.405 1.376 1 1.723v4.277c-.552 0-1 .448-1 1v14h4z"/><path d="m58 25c0-.552-.448-1-1-1v-4.277c.595-.346 1-.984 1-1.723 0-1.304-.386-2.579-1.109-3.664l-.891-1.336-.891 1.336c-.723 1.085-1.109 2.36-1.109 3.664 0 .738.405 1.376 1 1.723v4.277c-.552 0-1 .448-1 1v14h4z"/><path d="m21.224 34.151c.312-2.493 1.476-4.763 3.209-6.477-.925-1.312-1.433-2.876-1.433-4.502v-5.172c0-4.963 4.037-9 9-9s9 4.037 9 9v5.172c0 1.626-.508 3.19-1.433 4.502 1.733 1.714 2.898 3.985 3.209 6.478l.107.848h.117v-28h-22v28h.117z"/><path d="m35.236 27.178-.822.822c-.645.645-1.502 1-2.414 1s-1.77-.355-2.414-1l-.822-.822c-2.99 1.227-5.151 3.989-5.556 7.221l-.075.601h3.867v-2.586c0-.645-.251-1.251-.707-1.707l1.414-1.414c.834.834 1.293 1.942 1.293 3.121v2.586h6v-2.586c0-1.179.459-2.287 1.293-3.121l1.414 1.414c-.456.456-.707 1.063-.707 1.707v2.586h3.867l-.075-.601c-.405-3.232-2.566-5.995-5.556-7.221z"/><path d="m30.475 24.737-.331.993.856.856c.535.533 1.465.533 2 0l.856-.856-.331-.993c-.484.156-.99.263-1.525.263s-1.041-.107-1.525-.263z"/><path d="m35.297 23.729.498 1.494c.789.305 1.52.715 2.206 1.183.64-.954.999-2.07.999-3.235v-5.171c0-3.859-3.141-7-7-7s-7 3.141-7 7v5.172c0 1.165.359 2.281.999 3.235.687-.468 1.417-.878 2.206-1.183l.498-1.494c-1.036-.917-1.703-2.241-1.703-3.73v-2c0-.939.448-1.837 1.2-2.399l3.8-2.851 3.8 2.851c.752.562 1.2 1.46 1.2 2.399v2c0 1.489-.667 2.813-1.703 3.729z"/><path d="m35 20v-2c0-.313-.149-.612-.399-.8l-2.601-1.95-2.601 1.95c-.25.188-.399.487-.399.8v2c0 1.654 1.346 3 3 3s3-1.346 3-3z"/><path d="m47 3h-30v36h30.002zm-2 34h-26v-32h26z"/><path d="m47 41h-30-14v6c0 1.103.897 2 2 2h6v-2c0-1.103.897-2 2-2h38c1.103 0 2 .897 2 2v2h6c1.103 0 2-.897 2-2v-6z"/><path d="m53 51h4v10h-4z"/><path d="m7 51h4v10h-4z"/></g></svg>