<?xml version="1.0" encoding="iso-8859-1"?>
<!-- Generator: Adobe Illustrator 16.0.0, SVG Export Plug-In . SVG Version: 6.00 Build 0)  -->
<!DOCTYPE svg PUBLIC "-//W3C//DTD SVG 1.1//EN" "http://www.w3.org/Graphics/SVG/1.1/DTD/svg11.dtd">
<svg version="1.1" id="Capa_1" xmlns="http://www.w3.org/2000/svg" xmlns:xlink="http://www.w3.org/1999/xlink" x="0px" y="0px"
	 width="255.81px" height="255.81px" viewBox="0 0 255.81 255.81" style="enable-background:new 0 0 255.81 255.81;"
	 xml:space="preserve">
<g>
	<g>
		<path d="M184.053,148.31H71.761c-19.018,0-22.344,7.249-22.344,16.197V169h156.978v-4.492
			C206.395,155.546,203.068,148.31,184.053,148.31z"/>
		<path d="M50.345,142.243h73.298h3.048V77.575c-7.514-8.997-22.095-15.198-39.097-15.198H70.749
			c-24.622,0-44.585,12.838-44.585,28.671v19.131c14.451,5.432,24.187,15.136,24.187,26.285L50.345,142.243L50.345,142.243z"/>
		<path d="M229.653,91.063c0-15.849-19.965-28.669-44.578-28.669h-16.844c-17.004,0-31.587,6.192-39.11,15.196v64.668h3.048h73.296
			v-5.778c0-11.149,9.737-20.839,24.188-26.285V91.063L229.653,91.063z"/>
		<path d="M0,110.9v82.533h41.627v-56.97C41.627,122.354,22.974,110.9,0,110.9z"/>
		<path d="M214.181,136.463v56.97h41.629V110.9C232.835,110.9,214.181,122.354,214.181,136.463z"/>
		<rect x="49.417" y="171.083" width="156.978" height="22.35"/>
	</g>
</g>
<g>
</g>
<g>
</g>
<g>
</g>
<g>
</g>
<g>
</g>
<g>
</g>
<g>
</g>
<g>
</g>
<g>
</g>
<g>
</g>
<g>
</g>
<g>
</g>
<g>
</g>
<g>
</g>
<g>
</g>
</svg>
