<svg id="Capa_1" enable-background="new 0 0 512 512" height="512" viewBox="0 0 512 512" width="512" xmlns="http://www.w3.org/2000/svg"><g><path d="m346 151c0-36.042-21.328-67.905-51.925-82.275 4.319-6.907 6.925-14.995 6.925-23.725 0-24.814-20.186-45-45-45-12.041 0-23.35 4.688-31.831 13.198-5.845 5.859-5.845 15.366.029 21.211 5.859 5.83 15.352 5.859 21.211-.029 8.643-8.628 25.606-1.655 25.591 10.62 0 8.276-6.724 15-15 15-49.706 0-90 41.294-90 91s40.294 90 90 90 90-40.294 90-90zm-90 45c-24.814 0-45-20.186-45-45 0-8.291 6.709-15 15-15s15 6.709 15 15c0 8.276 6.724 15 15 15s15-6.724 15-15c0-8.291 6.709-15 15-15s15 6.709 15 15c0 24.814-20.185 45-45 45z"/><path d="m133.393 286.293c19.805 9.082 32.607 31.015 32.607 54.32v51.387h180v-51.387c0-23.306 12.803-45.238 32.607-54.32 40.459-18.574 71.748-53.496 85.869-95.815 5.099-15.361-2.855-32.521-19.072-37.969-16.025-5.273-33.94 4.482-38.35 20.581-10.956 39.99-50.405 67.91-95.917 67.91h-110.274c-45.601 0-85.034-27.891-95.889-67.822-4.409-16.23-22.544-25.986-38.496-20.64-15.976 5.387-24.091 22.502-18.94 37.954 14.107 42.305 45.396 77.227 85.855 95.801z"/><path d="m286 512v-28.154c0-23.498 8.851-45.128 23.47-61.846h-106.94c14.619 16.718 23.47 38.348 23.47 61.846v28.154z"/><path d="m440.526 392c-12.041 0-22.866 6.694-28.257 17.461l-6.269 12.539h-42.697c-27.897 7.628-47.303 32.805-47.303 61.846v28.154h88.154c27.598 0 51.533-18.691 58.213-45.454l8.818-35.303c4.972-19.887-10.056-39.243-30.659-39.243z"/><path d="m49.648 466.546c6.665 26.763 30.6 45.454 58.198 45.454h88.154v-28.154c0-29.041-19.406-54.218-47.303-61.846h-42.697l-6.27-12.539c-5.39-10.767-16.215-17.461-28.256-17.461-20.581 0-35.634 19.327-30.659 39.258z"/></g></svg>